<svg id="svg" version="1.1" xmlns="http://www.w3.org/2000/svg" xmlns:xlink="http://www.w3.org/1999/xlink" width="400" height="400" viewBox="0, 0, 400,400"><g id="svgg"><path id="path0" d="M0.000 200.000 L 0.000 400.000 200.000 400.000 L 400.000 400.000 400.000 200.000 L 400.000 0.000 200.000 0.000 L 0.000 0.000 0.000 200.000 M299.219 25.758 C 341.018 29.198,367.292 53.436,370.915 91.899 C 371.710 100.343,371.559 302.505,370.753 308.398 C 365.233 348.763,339.900 371.708,297.656 374.604 C 289.768 375.145,113.655 375.133,105.078 374.592 C 60.447 371.772,34.648 349.555,29.415 309.435 C 28.610 303.266,28.137 114.264,28.889 99.219 C 31.015 56.663,53.822 31.390,94.804 26.177 C 103.427 25.080,286.425 24.705,299.219 25.758 M162.695 60.418 C 136.733 63.949,117.227 81.911,111.650 107.422 C 110.263 113.768,110.248 156.352,111.631 163.175 C 117.077 190.042,139.133 209.173,166.113 210.432 L 171.094 210.665 171.094 220.301 C 171.094 235.182,173.439 239.453,181.609 239.453 C 186.000 239.453,186.524 239.052,201.758 224.051 L 215.430 210.589 224.219 210.558 C 229.053 210.541,234.695 210.363,236.757 210.162 C 265.138 207.400,286.711 185.416,289.091 156.830 C 289.758 148.829,289.342 113.309,288.534 109.180 C 283.757 84.776,266.429 66.674,242.656 61.253 C 239.108 60.444,167.966 59.701,162.695 60.418 M239.091 70.541 C 258.757 73.849,274.701 89.558,278.794 109.658 C 279.848 114.836,279.848 156.649,278.794 161.826 C 275.154 179.704,261.565 194.444,244.520 199.006 C 239.849 200.256,237.767 200.410,223.828 200.539 C 214.126 200.628,212.119 200.744,211.133 201.274 C 210.488 201.619,203.810 208.066,196.291 215.599 C 188.773 223.133,182.407 229.297,182.145 229.297 C 181.028 229.297,180.859 227.575,180.858 216.139 C 180.856 200.203,181.392 200.910,169.047 200.562 C 144.238 199.863,126.730 185.775,121.258 162.109 C 120.393 158.372,119.954 121.013,120.690 113.867 C 122.972 91.721,140.258 73.476,161.914 70.355 C 166.593 69.681,234.957 69.846,239.091 70.541 M193.945 86.512 C 178.879 89.471,168.980 98.718,166.202 112.428 C 164.969 118.512,165.348 118.750,176.267 118.750 C 186.090 118.750,185.678 118.911,186.738 114.668 C 188.326 108.314,191.386 105.326,197.373 104.284 C 206.132 102.758,213.475 107.941,213.443 115.625 C 213.422 120.572,211.054 123.950,203.291 130.110 C 192.341 138.799,189.132 144.313,189.030 154.606 C 188.973 160.415,188.525 160.156,198.654 160.156 C 208.552 160.156,208.285 160.298,208.930 154.686 C 209.754 147.519,211.123 145.560,220.117 138.668 C 230.265 130.893,233.342 125.492,233.356 115.430 C 233.382 96.103,214.743 82.426,193.945 86.512 M192.581 170.135 C 186.072 173.047,186.039 186.632,192.534 189.346 C 195.951 190.774,204.577 190.226,206.929 188.432 C 211.250 185.136,211.015 173.748,206.565 170.801 C 204.520 169.447,195.119 168.999,192.581 170.135 M61.914 252.318 C 58.845 253.065,56.694 255.101,55.900 258.008 C 55.344 260.042,55.298 313.668,55.850 315.594 C 56.457 317.710,58.154 319.829,59.933 320.689 C 61.870 321.627,108.273 321.949,111.522 321.047 C 113.560 320.481,116.184 317.857,116.750 315.819 C 117.356 313.634,117.356 259.803,116.750 257.618 C 116.184 255.580,113.560 252.957,111.522 252.391 C 109.751 251.899,63.911 251.832,61.914 252.318 M125.949 252.320 C 123.131 252.994,121.131 254.891,120.327 257.653 C 120.008 258.749,119.916 267.127,120.000 287.336 L 120.117 315.491 121.293 317.392 C 122.127 318.742,123.030 319.582,124.407 320.291 L 126.345 321.289 149.598 321.411 C 176.041 321.550,176.136 321.542,178.670 319.004 C 181.322 316.348,181.251 317.253,181.241 286.283 C 181.233 260.002,181.191 258.307,180.511 256.808 C 179.644 254.901,177.462 253.011,175.421 252.399 C 173.737 251.895,128.033 251.822,125.949 252.320 M190.367 252.320 C 187.380 253.049,185.178 255.223,184.364 258.244 C 184.104 259.209,184.002 269.468,184.072 287.579 L 184.180 315.430 185.264 317.275 C 185.968 318.471,186.998 319.501,188.194 320.204 L 190.039 321.289 214.463 321.289 L 238.888 321.289 240.827 320.291 C 242.001 319.687,243.230 318.634,243.942 317.621 L 245.117 315.949 245.234 287.564 C 245.371 254.475,245.488 255.494,241.274 253.080 L 239.648 252.148 215.625 252.084 C 202.412 252.048,191.046 252.154,190.367 252.320 M254.437 252.319 C 252.360 252.826,250.434 254.280,249.313 256.186 L 248.242 258.008 248.132 285.522 C 248.007 316.660,247.992 316.451,250.537 318.998 C 253.050 321.512,252.670 321.480,279.407 321.482 C 305.452 321.485,305.111 321.510,307.357 319.415 C 309.907 317.036,309.791 318.688,309.675 286.398 L 309.570 257.169 308.496 255.545 C 307.905 254.652,306.674 253.523,305.761 253.035 L 304.102 252.148 279.883 252.084 C 266.563 252.048,255.112 252.154,254.437 252.319 M318.164 252.424 C 312.718 254.328,312.909 253.094,312.903 286.523 L 312.898 315.039 313.841 317.065 C 314.495 318.468,315.295 319.428,316.446 320.190 L 318.108 321.289 328.519 321.289 L 338.929 321.289 340.851 320.115 C 342.295 319.234,343.041 318.414,343.848 316.823 L 344.922 314.704 344.922 286.636 C 344.922 255.701,345.022 257.019,342.471 254.384 C 340.415 252.259,338.588 251.949,328.347 251.984 C 323.153 252.002,318.840 252.188,318.164 252.424 M108.594 286.719 L 108.594 312.109 86.523 312.109 L 64.453 312.109 64.453 286.719 L 64.453 261.328 86.523 261.328 L 108.594 261.328 108.594 286.719 M172.266 286.719 L 172.266 312.109 150.391 312.109 L 128.516 312.109 128.516 286.719 L 128.516 261.328 150.391 261.328 L 172.266 261.328 172.266 286.719 M236.624 286.816 L 236.724 312.109 214.847 312.109 L 192.969 312.109 192.969 286.715 L 192.969 261.322 214.746 261.423 L 236.523 261.523 236.624 286.816 M301.172 286.719 L 301.172 312.109 279.102 312.109 L 257.031 312.109 257.031 286.719 L 257.031 261.328 279.102 261.328 L 301.172 261.328 301.172 286.719 M336.328 286.719 L 336.328 312.109 328.906 312.109 L 321.484 312.109 321.484 286.719 L 321.484 261.328 328.906 261.328 L 336.328 261.328 336.328 286.719 M148.938 270.600 C 149.965 270.681,151.547 270.680,152.453 270.598 C 153.360 270.516,152.520 270.450,150.586 270.451 C 148.652 270.452,147.911 270.519,148.938 270.600 M85.259 270.983 C 85.853 271.073,86.732 271.071,87.212 270.978 C 87.693 270.885,87.207 270.812,86.133 270.815 C 85.059 270.818,84.666 270.894,85.259 270.983 M155.802 272.448 C 156.144 273.398,156.490 274.109,156.571 274.028 C 156.785 273.814,155.859 271.139,155.492 270.913 C 155.321 270.807,155.461 271.498,155.802 272.448 M218.555 286.854 L 218.555 302.930 214.648 302.930 L 210.742 302.930 210.540 286.914 L 210.338 270.898 210.247 286.738 C 210.142 305.094,209.728 303.516,214.648 303.516 C 216.892 303.516,218.376 303.343,218.672 303.047 C 219.202 302.516,219.373 271.284,218.848 270.959 C 218.687 270.859,218.555 278.012,218.555 286.854 M265.367 271.003 C 265.118 271.162,266.349 271.240,268.102 271.177 C 272.781 271.008,273.353 270.816,269.336 270.762 C 267.402 270.736,265.616 270.845,265.367 271.003 M285.314 271.582 C 284.574 272.457,284.574 272.458,285.366 271.792 C 285.971 271.283,287.088 271.093,290.053 270.995 L 293.945 270.867 290.002 270.785 C 286.341 270.709,286.005 270.766,285.314 271.582 M274.414 273.828 C 275.171 275.332,275.879 276.563,275.986 276.563 C 276.094 276.563,275.562 275.332,274.805 273.828 C 274.047 272.324,273.340 271.094,273.232 271.094 C 273.125 271.094,273.657 272.324,274.414 273.828 M94.276 272.797 C 96.421 273.881,98.195 275.428,99.267 277.148 C 99.668 277.793,99.998 278.155,99.999 277.954 C 100.004 276.499,95.673 272.671,93.359 272.087 C 92.822 271.951,93.235 272.271,94.276 272.797 M143.973 272.879 C 143.830 273.452,143.787 273.996,143.879 274.088 C 143.971 274.180,144.164 273.787,144.308 273.214 C 144.452 272.642,144.494 272.098,144.402 272.006 C 144.310 271.914,144.117 272.307,143.973 272.879 M291.016 277.344 C 289.937 279.492,289.143 281.250,289.251 281.250 C 289.358 281.250,290.328 279.492,291.406 277.344 C 292.484 275.195,293.279 273.438,293.171 273.438 C 293.064 273.438,292.094 275.195,291.016 277.344 M266.406 275.391 C 266.845 276.250,267.291 276.953,267.399 276.953 C 267.506 276.953,267.235 276.250,266.797 275.391 C 266.358 274.531,265.912 273.828,265.804 273.828 C 265.697 273.828,265.968 274.531,266.406 275.391 M143.004 276.207 C 142.740 277.089,142.596 277.882,142.684 277.970 C 142.772 278.058,143.060 277.409,143.324 276.527 C 143.588 275.645,143.732 274.852,143.644 274.764 C 143.556 274.676,143.268 275.326,143.004 276.207 M72.747 278.125 C 72.747 278.877,72.827 279.185,72.926 278.809 C 73.024 278.433,73.024 277.817,72.926 277.441 C 72.827 277.065,72.747 277.373,72.747 278.125 M157.451 277.166 C 157.435 277.391,157.936 279.061,158.564 280.877 C 159.193 282.693,159.720 283.996,159.736 283.771 C 159.752 283.547,159.252 281.877,158.623 280.060 C 157.995 278.244,157.467 276.942,157.451 277.166 M268.359 278.906 C 268.798 279.766,269.244 280.469,269.352 280.469 C 269.459 280.469,269.188 279.766,268.750 278.906 C 268.312 278.047,267.865 277.344,267.758 277.344 C 267.650 277.344,267.921 278.047,268.359 278.906 M281.427 278.552 C 281.083 279.216,280.871 279.829,280.956 279.914 C 281.041 279.999,281.402 279.455,281.760 278.706 C 282.563 277.021,282.285 276.893,281.427 278.552 M82.316 278.016 C 83.009 278.103,84.239 278.104,85.050 278.019 C 85.860 277.935,85.293 277.864,83.789 277.863 C 82.285 277.861,81.622 277.930,82.316 278.016 M90.918 279.979 C 91.616 280.636,92.188 281.395,92.188 281.667 C 92.188 281.939,92.299 282.050,92.436 281.913 C 92.802 281.547,91.541 279.786,90.527 279.250 C 89.914 278.925,90.032 279.145,90.918 279.979 M150.055 279.688 C 150.055 280.010,150.206 280.625,150.391 281.055 C 150.602 281.547,150.726 281.619,150.726 281.250 C 150.726 280.928,150.575 280.313,150.391 279.883 C 150.179 279.390,150.055 279.318,150.055 279.688 M141.250 281.875 C 140.872 283.073,140.634 284.123,140.720 284.209 C 140.806 284.295,141.185 283.385,141.563 282.188 C 141.940 280.990,142.179 279.939,142.093 279.853 C 142.007 279.767,141.628 280.677,141.250 281.875 M149.072 283.252 C 148.706 284.569,148.477 285.717,148.563 285.802 C 148.649 285.888,149.021 284.884,149.390 283.569 C 149.758 282.255,149.988 281.107,149.899 281.019 C 149.810 280.930,149.438 281.935,149.072 283.252 M270.508 282.813 C 271.052 283.887,271.585 284.766,271.693 284.766 C 271.800 284.766,271.443 283.887,270.898 282.813 C 270.354 281.738,269.821 280.859,269.713 280.859 C 269.606 280.859,269.963 281.738,270.508 282.813 M278.799 282.160 C 279.169 282.983,279.544 283.422,279.632 283.137 C 279.721 282.851,279.955 282.266,280.152 281.836 C 280.487 281.109,280.473 281.103,279.955 281.743 C 279.430 282.394,279.364 282.383,278.763 281.548 C 278.216 280.787,278.221 280.873,278.799 282.160 M287.305 284.375 C 286.547 285.879,286.016 287.109,286.123 287.109 C 286.230 287.109,286.938 285.879,287.695 284.375 C 288.453 282.871,288.984 281.641,288.877 281.641 C 288.770 281.641,288.062 282.871,287.305 284.375 M101.172 283.180 C 101.172 283.812,101.311 284.415,101.481 284.520 C 101.651 284.625,101.719 284.108,101.633 283.371 C 101.442 281.729,101.172 281.618,101.172 283.180 M92.773 286.523 C 92.773 288.805,92.888 290.265,93.027 289.769 C 93.167 289.273,93.281 287.813,93.281 286.523 C 93.281 285.234,93.167 283.774,93.027 283.278 C 92.888 282.782,92.773 284.242,92.773 286.523 M151.227 283.984 C 151.227 284.307,151.378 284.922,151.563 285.352 C 151.774 285.844,151.898 285.916,151.898 285.547 C 151.898 285.225,151.747 284.609,151.563 284.180 C 151.351 283.687,151.227 283.615,151.227 283.984 M101.674 286.914 C 101.677 287.988,101.753 288.381,101.843 287.788 C 101.933 287.194,101.930 286.315,101.837 285.834 C 101.745 285.354,101.671 285.840,101.674 286.914 M272.656 286.719 C 273.095 287.578,273.541 288.281,273.649 288.281 C 273.756 288.281,273.485 287.578,273.047 286.719 C 272.608 285.859,272.162 285.156,272.054 285.156 C 271.947 285.156,272.218 285.859,272.656 286.719 M139.489 287.536 C 139.224 288.417,139.080 289.210,139.168 289.298 C 139.256 289.386,139.544 288.737,139.808 287.855 C 140.072 286.973,140.217 286.180,140.129 286.092 C 140.041 286.004,139.753 286.654,139.489 287.536 M147.879 287.333 C 147.736 287.905,147.694 288.449,147.786 288.541 C 147.878 288.633,148.071 288.240,148.214 287.667 C 148.358 287.095,148.400 286.551,148.308 286.459 C 148.216 286.367,148.023 286.760,147.879 287.333 M152.013 286.719 C 152.013 287.041,152.249 287.920,152.539 288.672 C 152.829 289.424,153.066 289.775,153.066 289.453 C 153.066 289.131,152.829 288.252,152.539 287.500 C 152.249 286.748,152.013 286.396,152.013 286.719 M160.577 286.929 C 160.560 287.152,161.149 289.086,161.884 291.226 C 162.620 293.366,163.235 294.935,163.252 294.712 C 163.268 294.489,162.679 292.555,161.944 290.415 C 161.208 288.275,160.593 286.706,160.577 286.929 M284.577 289.440 C 283.641 291.287,283.598 291.666,283.672 297.350 L 283.751 303.320 283.965 297.070 C 284.154 291.565,284.285 290.623,285.067 289.160 C 285.554 288.247,285.865 287.500,285.757 287.500 C 285.649 287.500,285.118 288.373,284.577 289.440 M72.755 290.039 C 72.759 290.898,72.839 291.204,72.933 290.718 C 73.026 290.232,73.022 289.529,72.925 289.156 C 72.827 288.782,72.750 289.180,72.755 290.039 M274.502 289.941 C 275.044 290.933,275.242 292.493,275.411 297.070 L 275.626 302.930 275.704 297.348 C 275.778 292.022,275.122 288.672,274.005 288.672 C 273.897 288.672,274.120 289.243,274.502 289.941 M101.225 290.283 C 101.196 290.847,100.906 292.061,100.582 292.981 C 100.257 293.900,100.064 294.725,100.151 294.813 C 100.469 295.131,101.615 291.011,101.449 290.146 C 101.294 289.338,101.273 289.350,101.225 290.283 M148.547 290.522 C 149.574 290.603,151.156 290.602,152.063 290.520 C 152.969 290.438,152.129 290.372,150.195 290.373 C 148.262 290.374,147.520 290.441,148.547 290.522 M91.783 292.221 C 91.206 293.614,88.563 295.703,87.376 295.703 C 86.943 295.703,86.698 295.812,86.831 295.945 C 87.258 296.372,88.965 295.734,90.218 294.680 C 91.412 293.675,92.802 291.499,92.464 291.162 C 92.370 291.068,92.063 291.544,91.783 292.221 M137.536 293.786 C 137.271 294.667,137.127 295.460,137.215 295.548 C 137.303 295.636,137.591 294.987,137.855 294.105 C 138.119 293.223,138.263 292.430,138.176 292.342 C 138.088 292.254,137.800 292.904,137.536 293.786 M82.129 296.378 C 82.935 296.463,84.253 296.463,85.059 296.378 C 85.864 296.294,85.205 296.225,83.594 296.225 C 81.982 296.225,81.323 296.294,82.129 296.378 M144.576 298.476 C 144.337 299.163,144.153 299.919,144.168 300.156 C 144.183 300.392,144.448 299.898,144.756 299.058 C 145.064 298.217,145.247 297.461,145.164 297.377 C 145.080 297.294,144.816 297.788,144.576 298.476 M155.154 297.656 C 155.265 297.979,155.667 299.209,156.049 300.391 C 156.898 303.016,157.279 303.527,158.349 303.477 C 159.106 303.441,159.096 303.414,158.236 303.174 C 157.492 302.966,157.101 302.343,156.386 300.224 C 155.888 298.746,155.362 297.432,155.217 297.304 C 155.072 297.175,155.044 297.334,155.154 297.656 M96.868 299.329 C 96.327 299.805,95.360 300.601,94.720 301.096 C 94.079 301.591,93.906 301.826,94.336 301.618 C 95.150 301.224,98.389 298.473,98.047 298.466 C 97.939 298.464,97.409 298.852,96.868 299.329 M135.388 300.635 C 134.843 302.363,134.799 302.916,135.180 303.267 C 135.544 303.603,135.593 303.590,135.380 303.214 C 135.226 302.940,135.394 301.830,135.754 300.747 C 136.113 299.664,136.333 298.703,136.242 298.612 C 136.152 298.521,135.767 299.432,135.388 300.635 M143.530 301.717 C 143.388 302.282,142.984 302.928,142.632 303.153 C 142.142 303.465,142.129 303.526,142.578 303.412 C 143.212 303.250,144.346 301.247,144.000 300.901 C 143.883 300.784,143.672 301.152,143.530 301.717 M91.406 302.564 C 90.536 302.893,90.323 303.084,90.820 303.089 C 91.250 303.094,92.041 302.846,92.578 302.539 C 93.771 301.857,93.245 301.868,91.406 302.564 M164.258 303.125 L 163.086 303.423 164.137 303.469 C 164.715 303.495,165.297 303.340,165.430 303.125 C 165.562 302.910,165.617 302.755,165.550 302.781 C 165.484 302.806,164.902 302.961,164.258 303.125 M87.407 303.401 C 87.893 303.495,88.596 303.491,88.969 303.393 C 89.343 303.296,88.945 303.219,88.086 303.224 C 87.227 303.228,86.921 303.308,87.407 303.401 M75.684 303.805 C 77.026 303.881,79.224 303.881,80.566 303.805 C 81.909 303.729,80.811 303.666,78.125 303.666 C 75.439 303.666,74.341 303.729,75.684 303.805 " stroke="none" fill="#44483b" fill-rule="evenodd"></path><path id="path1" d="M165.039 70.175 C 142.390 72.800,125.027 88.587,121.304 109.940 C 120.282 115.800,120.428 156.924,121.489 162.131 C 126.137 184.942,144.086 199.583,168.359 200.365 C 181.657 200.794,181.226 200.217,181.241 217.634 C 181.249 227.724,181.314 228.847,181.903 229.073 C 182.391 229.261,186.153 225.738,196.844 215.082 C 209.028 202.938,211.334 200.808,212.500 200.620 C 213.252 200.498,219.756 200.341,226.953 200.270 C 239.668 200.145,240.148 200.112,243.882 199.108 C 261.394 194.399,274.867 180.015,278.510 162.139 C 279.575 156.911,279.721 115.661,278.693 110.102 C 274.814 89.112,257.404 72.690,236.523 70.326 C 233.320 69.964,168.053 69.825,165.039 70.175 M207.813 86.379 C 228.605 90.127,239.701 110.694,230.389 128.224 C 228.729 131.349,224.986 135.092,218.244 140.369 C 210.944 146.083,209.638 148.080,209.139 154.297 C 208.649 160.386,209.059 160.156,198.661 160.156 L 190.291 160.156 189.481 159.127 C 188.542 157.932,188.433 155.596,189.078 150.451 C 190.039 142.787,193.714 137.564,203.731 129.623 C 211.483 123.478,213.086 121.079,213.086 115.625 C 213.086 108.562,208.936 104.710,200.977 104.384 C 193.117 104.063,188.580 107.395,186.880 114.738 C 185.905 118.952,186.445 118.750,176.140 118.750 L 167.244 118.750 166.435 117.721 C 164.253 114.947,167.676 104.206,172.667 98.163 C 180.278 88.950,194.892 84.050,207.813 86.379 M205.826 170.295 C 209.234 172.034,209.969 173.782,209.941 180.078 C 209.905 187.992,207.498 190.230,199.023 190.230 C 190.027 190.230,187.698 187.894,187.949 179.124 C 188.110 173.528,188.856 171.857,191.863 170.369 C 194.284 169.171,203.526 169.122,205.826 170.295 M73.340 271.312 C 73.179 271.478,73.047 278.721,73.047 287.407 L 73.047 303.200 81.738 303.061 C 91.504 302.905,92.966 302.546,96.375 299.466 C 103.605 292.934,102.597 277.023,94.714 273.257 C 91.378 271.664,74.486 270.126,73.340 271.312 M145.193 271.375 C 144.881 271.902,135.547 302.181,135.547 302.665 C 135.547 302.985,136.661 303.125,139.219 303.125 L 142.892 303.125 143.801 300.195 L 144.711 297.266 150.193 297.266 L 155.676 297.266 156.646 300.098 L 157.617 302.930 161.097 303.043 C 163.011 303.106,164.737 302.998,164.932 302.803 C 165.220 302.514,157.835 278.461,155.675 272.656 L 155.166 271.289 150.270 271.180 C 147.576 271.120,145.292 271.208,145.193 271.375 M211.031 286.998 L 211.133 302.930 214.393 303.044 C 219.175 303.211,218.781 304.715,218.659 286.763 L 218.555 271.289 214.742 271.177 L 210.929 271.065 211.031 286.998 M267.480 271.382 C 264.718 271.556,264.708 271.338,267.711 276.663 C 269.074 279.078,271.447 283.364,272.985 286.186 L 275.781 291.317 275.787 296.733 C 275.795 303.483,275.599 303.185,279.916 303.043 L 283.398 302.930 283.594 296.680 L 283.789 290.430 287.160 284.180 C 291.900 275.391,293.785 271.550,293.452 271.359 C 293.293 271.269,291.746 271.162,290.013 271.122 C 285.953 271.027,285.935 271.043,282.343 278.206 L 279.461 283.951 276.247 277.761 C 272.973 271.459,272.567 270.992,270.508 271.173 C 270.078 271.211,268.716 271.305,267.480 271.382 M88.672 278.220 C 92.135 279.270,93.434 281.522,93.457 286.515 C 93.489 293.461,90.053 296.832,82.910 296.865 L 80.859 296.875 80.859 287.333 C 80.859 278.570,80.915 277.778,81.543 277.625 C 82.582 277.373,87.129 277.752,88.672 278.220 M151.969 284.725 C 152.820 287.765,153.516 290.424,153.516 290.634 C 153.516 290.853,152.098 291.016,150.195 291.016 C 148.138 291.016,146.875 290.860,146.875 290.606 C 146.875 289.903,150.111 278.887,150.271 279.047 C 150.354 279.130,151.118 281.685,151.969 284.725 " stroke="none" fill="#fbecd0" fill-rule="evenodd"></path><path id="path2" d="M113.909 25.283 C 113.861 25.332,110.667 25.467,106.813 25.584 C 98.636 25.832,90.820 26.729,84.375 28.161 C 80.456 29.031,79.765 29.222,76.924 30.215 C 75.296 30.784,73.670 31.250,73.310 31.250 C 72.951 31.250,72.656 31.426,72.656 31.641 C 72.656 31.855,72.376 32.031,72.033 32.031 C 71.242 32.031,63.040 36.123,62.253 36.910 C 61.928 37.235,61.412 37.500,61.105 37.500 C 60.798 37.500,60.547 37.676,60.547 37.891 C 60.547 38.105,60.361 38.281,60.133 38.281 C 59.798 38.281,57.021 40.238,56.250 41.018 C 56.143 41.126,55.358 41.735,54.506 42.371 C 52.695 43.723,46.872 49.584,45.375 51.563 C 44.806 52.314,44.243 53.018,44.124 53.125 C 44.005 53.232,43.481 53.936,42.961 54.688 C 42.440 55.439,41.873 56.230,41.702 56.445 C 40.881 57.475,38.281 61.789,38.281 62.123 C 38.281 62.330,38.105 62.500,37.891 62.500 C 37.676 62.500,37.500 62.714,37.500 62.975 C 37.500 63.236,36.814 64.862,35.975 66.588 C 34.156 70.333,32.031 76.249,32.031 77.570 C 32.031 78.090,31.878 78.516,31.691 78.516 C 31.504 78.516,31.225 79.526,31.071 80.762 C 30.917 81.997,30.740 83.271,30.678 83.594 C 30.616 83.916,30.378 85.146,30.148 86.328 C 29.918 87.510,29.615 89.971,29.473 91.797 C 29.332 93.623,29.150 95.645,29.069 96.289 C 28.987 96.934,28.916 143.532,28.911 199.840 C 28.900 308.271,28.883 307.129,30.653 315.430 C 30.974 316.934,31.239 318.735,31.243 319.434 C 31.247 320.132,31.426 320.703,31.641 320.703 C 31.855 320.703,32.031 321.086,32.031 321.554 C 32.031 322.345,32.508 324.117,33.220 325.977 C 35.371 331.591,36.196 333.602,36.792 334.680 C 37.181 335.385,37.500 336.144,37.500 336.367 C 37.500 336.591,38.027 337.540,38.672 338.477 C 39.316 339.413,39.844 340.353,39.844 340.565 C 39.844 340.777,39.976 341.009,40.137 341.081 C 40.298 341.152,41.392 342.617,42.569 344.336 C 46.790 350.503,52.897 356.539,59.375 360.946 C 60.127 361.458,60.830 361.973,60.938 362.091 C 61.415 362.614,70.606 367.306,73.242 368.372 C 74.881 369.034,80.333 370.821,81.641 371.124 C 86.188 372.178,92.919 373.438,94.004 373.438 C 94.703 373.437,96.118 373.608,97.149 373.815 C 101.061 374.604,111.274 374.689,201.563 374.690 C 305.155 374.692,304.285 374.713,315.430 371.913 C 316.289 371.697,317.695 371.361,318.555 371.166 C 319.414 370.972,321.172 370.416,322.461 369.931 C 323.750 369.447,325.288 368.963,325.879 368.856 C 326.470 368.749,326.953 368.505,326.953 368.315 C 326.953 368.125,327.219 367.969,327.544 367.969 C 327.870 367.969,328.441 367.812,328.814 367.621 C 329.187 367.430,330.371 366.864,331.445 366.365 C 332.520 365.865,334.515 364.791,335.880 363.978 C 337.244 363.165,338.519 362.500,338.712 362.500 C 338.905 362.500,339.063 362.324,339.063 362.109 C 339.063 361.895,339.282 361.716,339.551 361.712 C 339.819 361.708,340.566 361.277,341.211 360.755 C 341.855 360.233,343.525 358.902,344.922 357.799 C 351.417 352.667,358.048 344.700,361.331 338.086 C 361.651 337.441,362.007 336.826,362.121 336.719 C 362.306 336.546,365.222 329.975,366.022 327.930 C 366.493 326.726,367.049 324.978,367.577 323.047 C 367.842 322.080,368.192 320.938,368.357 320.508 C 368.813 319.317,370.229 310.858,370.743 306.250 C 371.253 301.679,371.513 104.469,371.020 95.897 C 370.726 90.787,370.141 85.676,369.500 82.617 C 369.274 81.543,368.995 80.004,368.879 79.197 C 368.763 78.390,368.510 77.632,368.318 77.514 C 368.126 77.395,367.969 76.879,367.969 76.367 C 367.969 75.855,367.793 75.328,367.578 75.195 C 367.363 75.063,367.188 74.535,367.188 74.023 C 367.188 73.512,367.012 72.984,366.797 72.852 C 366.582 72.719,366.406 72.332,366.406 71.992 C 366.406 71.653,365.527 69.561,364.453 67.345 C 363.379 65.129,362.500 63.133,362.500 62.908 C 362.500 62.684,362.324 62.500,362.109 62.500 C 361.895 62.500,361.719 62.330,361.719 62.123 C 361.719 61.789,359.119 57.475,358.298 56.445 C 358.127 56.230,357.556 55.439,357.030 54.688 C 355.540 52.560,350.447 46.842,348.924 45.587 C 348.439 45.188,347.824 44.646,347.556 44.382 C 346.399 43.239,339.819 38.281,339.459 38.281 C 339.241 38.281,339.061 38.149,339.059 37.988 C 339.058 37.827,338.662 37.493,338.181 37.246 C 337.699 36.999,335.219 35.725,332.671 34.414 C 330.122 33.104,327.705 32.031,327.300 32.031 C 326.894 32.031,326.563 31.875,326.563 31.685 C 326.563 31.495,326.079 31.244,325.488 31.129 C 324.897 31.014,322.656 30.367,320.508 29.691 C 316.423 28.406,315.448 28.188,309.375 27.210 C 302.321 26.074,299.381 25.803,291.211 25.537 C 283.987 25.301,114.135 25.058,113.909 25.283 M239.573 60.515 C 240.474 60.712,242.266 61.082,243.555 61.337 C 244.844 61.592,246.250 61.939,246.680 62.107 C 247.109 62.276,248.252 62.629,249.219 62.891 C 251.058 63.390,256.915 65.967,258.594 67.016 C 259.131 67.352,259.878 67.724,260.254 67.843 C 260.630 67.962,260.938 68.215,260.938 68.405 C 260.938 68.595,261.134 68.750,261.373 68.750 C 261.830 68.750,264.789 70.795,267.280 72.830 C 270.498 75.461,274.471 79.640,278.256 84.375 C 279.552 85.996,281.250 88.777,281.250 89.277 C 281.250 89.589,281.382 89.845,281.543 89.847 C 281.704 89.848,282.029 90.244,282.266 90.726 C 282.502 91.207,283.057 92.305,283.499 93.164 C 285.558 97.170,287.500 102.571,287.500 104.290 C 287.500 104.938,287.653 105.469,287.841 105.469 C 288.175 105.469,288.325 106.369,289.047 112.695 C 289.533 116.951,289.501 154.847,289.009 158.984 C 288.791 160.811,288.521 163.140,288.409 164.160 C 288.297 165.181,288.047 166.016,287.853 166.016 C 287.659 166.016,287.500 166.512,287.500 167.119 C 287.500 170.562,280.634 184.868,277.718 187.500 C 277.599 187.607,277.087 188.311,276.580 189.063 C 274.890 191.568,266.304 199.611,264.977 199.931 C 264.689 200.000,264.453 200.220,264.453 200.419 C 264.453 200.618,264.265 200.781,264.035 200.781 C 263.805 200.781,262.880 201.289,261.979 201.909 C 259.945 203.308,254.275 206.248,253.608 206.249 C 253.337 206.250,252.809 206.417,252.436 206.622 C 252.063 206.827,250.703 207.331,249.414 207.742 C 247.111 208.476,245.885 208.813,241.992 209.782 C 240.743 210.093,235.636 210.335,227.816 210.455 L 215.593 210.642 202.035 224.065 C 194.578 231.448,188.257 237.492,187.988 237.495 C 187.720 237.498,187.500 237.652,187.500 237.839 C 187.500 238.447,183.530 239.844,181.798 239.844 C 180.023 239.844,175.781 238.466,175.781 237.889 C 175.781 237.704,175.474 237.449,175.098 237.321 C 174.293 237.049,172.126 234.212,171.654 232.813 C 171.473 232.275,171.229 227.099,171.112 221.311 L 170.898 210.785 167.969 210.717 C 161.312 210.561,155.130 209.510,150.632 207.769 C 149.582 207.363,148.396 207.031,147.995 207.031 C 147.594 207.031,147.266 206.894,147.266 206.726 C 147.266 206.558,146.484 206.190,145.528 205.907 C 144.572 205.625,143.737 205.279,143.673 205.139 C 143.608 204.998,142.676 204.452,141.602 203.925 C 139.484 202.887,136.212 200.765,136.003 200.293 C 135.931 200.132,135.693 200.000,135.473 200.000 C 135.080 200.000,132.442 198.084,131.201 196.897 C 130.852 196.562,129.501 195.353,128.199 194.210 C 126.898 193.066,125.074 191.133,124.148 189.913 C 123.221 188.693,122.361 187.607,122.237 187.500 C 121.727 187.058,118.750 182.436,118.750 182.085 C 118.750 181.877,118.598 181.647,118.411 181.576 C 118.134 181.469,116.580 178.377,114.419 173.633 C 113.632 171.904,112.500 168.182,112.500 167.322 C 112.500 166.818,112.342 166.406,112.149 166.406 C 111.798 166.406,111.725 165.991,110.989 159.766 C 110.470 155.377,110.470 115.191,110.989 111.133 C 111.209 109.414,111.481 107.261,111.593 106.348 C 111.705 105.435,111.955 104.688,112.149 104.688 C 112.342 104.688,112.500 104.197,112.500 103.597 C 112.500 102.317,115.497 94.237,116.893 91.756 C 118.981 88.043,119.449 87.255,120.352 85.930 C 124.314 80.116,133.413 71.359,137.871 69.068 C 138.419 68.786,138.955 68.468,139.063 68.360 C 139.726 67.694,145.228 65.001,149.755 63.126 C 150.587 62.782,151.600 62.500,152.006 62.500 C 152.412 62.500,153.050 62.340,153.423 62.144 C 153.796 61.948,155.156 61.583,156.445 61.333 C 157.734 61.083,159.316 60.734,159.961 60.557 C 161.594 60.109,237.535 60.069,239.573 60.515 M111.827 252.367 C 113.653 252.874,115.722 254.647,116.568 256.429 C 117.501 258.396,117.610 314.249,116.684 316.463 C 115.747 318.707,113.679 320.555,111.324 321.254 C 108.700 322.033,64.516 322.197,61.504 321.439 C 59.522 320.940,56.250 318.286,56.250 317.177 C 56.250 316.779,56.074 316.344,55.859 316.211 C 55.605 316.053,55.469 305.790,55.469 286.696 C 55.469 267.440,55.602 257.422,55.859 257.422 C 56.074 257.422,56.250 257.152,56.250 256.822 C 56.250 255.326,59.251 252.635,61.364 252.237 C 63.447 251.844,110.380 251.965,111.827 252.367 M177.450 253.064 C 178.260 253.568,179.403 254.609,179.989 255.378 L 181.055 256.775 181.160 286.205 C 181.271 317.579,181.331 316.466,179.432 318.573 C 176.648 321.662,176.923 321.631,150.977 321.701 C 124.474 321.771,124.957 321.823,122.024 318.601 C 119.494 315.823,119.531 316.304,119.531 286.421 C 119.531 256.551,119.514 256.775,122.011 254.355 C 124.526 251.917,123.888 251.967,151.172 252.062 L 175.977 252.148 177.450 253.064 M240.010 252.383 C 241.647 252.838,243.988 254.937,244.933 256.798 C 246.467 259.821,245.624 317.578,244.045 317.578 C 243.883 317.578,243.750 317.766,243.750 317.997 C 243.750 319.161,240.688 320.897,237.633 321.465 C 233.728 322.191,191.625 321.839,189.615 321.064 C 187.453 320.230,185.347 318.233,184.564 316.276 C 183.894 314.603,183.583 262.529,184.217 258.287 C 184.535 256.162,187.028 253.317,189.258 252.535 C 191.271 251.829,237.516 251.691,240.010 252.383 M306.250 253.111 C 310.361 256.004,310.138 254.080,310.148 286.769 C 310.157 318.072,310.266 316.634,307.673 319.305 C 305.174 321.879,304.998 321.893,278.307 321.780 C 252.137 321.670,253.169 321.764,250.586 319.257 C 248.093 316.837,248.252 318.887,248.135 287.774 C 248.017 256.750,247.985 257.245,250.302 254.696 C 252.862 251.879,251.921 251.963,279.883 252.061 L 304.883 252.148 306.250 253.111 M341.456 253.371 C 342.384 254.044,343.324 254.923,343.544 255.325 C 343.765 255.726,344.036 256.143,344.147 256.250 C 345.954 257.999,345.896 316.797,344.088 316.797 C 343.949 316.797,343.723 317.192,343.586 317.676 C 342.715 320.759,338.656 321.876,328.357 321.869 C 318.365 321.862,316.222 321.294,314.124 318.093 C 312.688 315.902,312.711 316.381,312.593 286.914 C 312.463 254.537,312.304 256.009,316.211 253.260 C 317.959 252.030,318.117 252.016,329.357 252.085 L 339.769 252.148 341.456 253.371 " stroke="none" fill="#fb8a22" fill-rule="evenodd"></path><path id="path3" d="M199.121 104.182 C 199.604 104.275,200.396 104.275,200.879 104.182 C 201.362 104.089,200.967 104.013,200.000 104.013 C 199.033 104.013,198.638 104.089,199.121 104.182 M173.926 200.660 C 174.302 200.758,174.917 200.758,175.293 200.660 C 175.669 200.562,175.361 200.481,174.609 200.481 C 173.857 200.481,173.550 200.562,173.926 200.660 M181.031 217.383 C 181.031 223.398,181.086 225.805,181.152 222.730 C 181.218 219.656,181.218 214.734,181.151 211.793 C 181.085 208.852,181.031 211.367,181.031 217.383 M64.453 286.719 L 64.453 312.109 86.523 312.109 L 108.594 312.109 108.594 286.719 L 108.594 261.328 86.523 261.328 L 64.453 261.328 64.453 286.719 M128.516 286.719 L 128.516 312.109 150.391 312.109 L 172.266 312.109 172.266 286.719 L 172.266 261.328 150.391 261.328 L 128.516 261.328 128.516 286.719 M192.969 286.715 L 192.969 312.109 214.847 312.109 L 236.724 312.109 236.624 286.816 L 236.523 261.523 214.746 261.423 L 192.969 261.322 192.969 286.715 M257.031 286.719 L 257.031 312.109 279.102 312.109 L 301.172 312.109 301.172 286.719 L 301.172 261.328 279.102 261.328 L 257.031 261.328 257.031 286.719 M321.484 286.719 L 321.484 312.109 328.906 312.109 L 336.328 312.109 336.328 286.719 L 336.328 261.328 328.906 261.328 L 321.484 261.328 321.484 286.719 M152.453 270.598 C 151.547 270.680,149.965 270.681,148.938 270.600 C 147.911 270.519,148.652 270.452,150.586 270.451 C 152.520 270.450,153.360 270.516,152.453 270.598 M87.639 271.185 C 87.516 271.383,88.031 271.420,88.829 271.271 C 89.769 271.094,90.234 271.153,90.234 271.448 C 90.234 271.731,90.607 271.796,91.269 271.630 C 91.907 271.470,92.213 271.517,92.068 271.753 C 91.934 271.970,92.332 272.135,92.986 272.135 C 95.208 272.135,100.597 276.843,99.818 278.104 C 99.678 278.330,99.760 278.516,100.000 278.516 C 100.240 278.516,100.328 278.691,100.195 278.906 C 100.063 279.121,100.159 279.297,100.409 279.297 C 100.660 279.297,100.764 279.561,100.640 279.883 C 100.516 280.205,100.589 280.469,100.801 280.469 C 101.023 280.469,101.077 280.907,100.927 281.504 C 100.758 282.176,100.809 282.451,101.073 282.288 C 101.313 282.139,101.541 282.579,101.634 283.374 C 101.720 284.109,101.651 284.625,101.481 284.520 C 101.311 284.415,101.172 284.613,101.172 284.961 C 101.172 285.309,101.348 285.484,101.563 285.352 C 101.804 285.203,101.943 285.830,101.926 286.989 C 101.904 288.465,101.820 288.700,101.532 288.086 C 101.271 287.530,101.228 287.828,101.382 289.119 C 101.615 291.077,101.282 293.083,100.776 292.770 C 100.604 292.664,100.563 292.956,100.684 293.420 C 100.834 293.993,100.761 294.174,100.457 293.986 C 100.166 293.807,100.091 293.923,100.242 294.316 C 100.370 294.650,100.270 294.922,100.019 294.922 C 99.768 294.922,99.672 295.098,99.805 295.313 C 99.937 295.527,99.850 295.703,99.609 295.703 C 99.369 295.703,99.285 295.885,99.422 296.107 C 99.560 296.330,98.906 297.252,97.970 298.158 C 97.034 299.064,96.668 299.466,97.158 299.053 C 97.647 298.640,98.047 298.416,98.047 298.556 C 98.047 299.035,94.069 301.955,93.714 301.736 C 93.519 301.615,93.359 301.681,93.359 301.883 C 93.359 302.521,91.188 303.183,90.041 302.895 C 89.195 302.683,89.018 302.736,89.261 303.130 C 89.511 303.535,89.145 303.587,87.464 303.385 C 86.302 303.246,82.539 303.130,79.102 303.128 L 72.852 303.125 72.808 287.426 C 72.780 277.457,72.906 271.576,73.154 271.313 C 73.637 270.799,87.956 270.673,87.639 271.185 M155.961 271.680 C 156.156 272.028,156.215 272.575,156.092 272.896 C 155.950 273.265,156.030 273.378,156.311 273.204 C 156.623 273.012,156.675 273.248,156.487 273.998 C 156.290 274.782,156.344 274.988,156.691 274.773 C 157.016 274.572,157.086 274.684,156.915 275.131 C 156.777 275.489,156.847 275.781,157.070 275.781 C 157.305 275.781,157.364 276.130,157.211 276.611 C 157.017 277.223,157.078 277.361,157.442 277.136 C 157.801 276.914,157.876 277.060,157.715 277.674 C 157.574 278.214,157.644 278.424,157.910 278.260 C 158.177 278.095,158.247 278.306,158.106 278.846 C 157.965 279.386,158.035 279.596,158.301 279.432 C 158.567 279.267,158.638 279.477,158.496 280.018 C 158.355 280.558,158.425 280.768,158.692 280.604 C 158.958 280.439,159.028 280.649,158.887 281.189 C 158.746 281.730,158.816 281.940,159.082 281.775 C 159.349 281.611,159.419 281.821,159.278 282.361 C 159.138 282.896,159.207 283.111,159.468 282.950 C 159.740 282.782,159.789 283.057,159.612 283.764 C 159.415 284.548,159.469 284.754,159.816 284.539 C 160.141 284.338,160.211 284.450,160.040 284.897 C 159.902 285.254,159.972 285.547,160.195 285.547 C 160.430 285.547,160.489 285.895,160.336 286.377 C 160.142 286.989,160.203 287.127,160.567 286.902 C 160.926 286.680,161.001 286.826,160.840 287.439 C 160.699 287.980,160.769 288.190,161.035 288.025 C 161.302 287.861,161.372 288.071,161.231 288.611 C 161.090 289.151,161.160 289.362,161.426 289.197 C 161.692 289.033,161.763 289.243,161.621 289.783 C 161.480 290.323,161.550 290.534,161.817 290.369 C 162.083 290.205,162.153 290.415,162.012 290.955 C 161.871 291.495,161.941 291.706,162.207 291.541 C 162.474 291.376,162.544 291.587,162.403 292.127 C 162.261 292.667,162.332 292.878,162.598 292.713 C 162.864 292.548,162.935 292.759,162.793 293.299 C 162.652 293.839,162.722 294.049,162.989 293.885 C 163.255 293.720,163.325 293.930,163.184 294.470 C 163.063 294.933,163.142 295.313,163.360 295.313 C 163.577 295.313,163.654 295.576,163.531 295.898 C 163.407 296.221,163.495 296.484,163.726 296.484 C 163.957 296.484,164.045 296.748,163.921 297.070 C 163.798 297.393,163.879 297.656,164.101 297.656 C 164.336 297.656,164.395 298.005,164.242 298.486 C 164.047 299.102,164.108 299.237,164.478 299.008 C 164.832 298.789,164.904 298.888,164.727 299.350 C 164.590 299.707,164.660 300.000,164.882 300.000 C 165.117 300.000,165.176 300.348,165.024 300.830 C 164.855 301.362,164.906 301.570,165.167 301.409 C 165.420 301.253,165.530 301.566,165.458 302.239 L 165.343 303.320 161.370 303.346 C 157.258 303.373,156.292 303.035,156.788 301.742 C 156.940 301.345,156.866 301.228,156.575 301.408 C 156.270 301.596,156.197 301.415,156.347 300.842 C 156.489 300.302,156.418 300.091,156.152 300.256 C 155.886 300.420,155.815 300.210,155.957 299.670 C 156.098 299.130,156.028 298.919,155.761 299.084 C 155.495 299.249,155.425 299.038,155.566 298.498 C 155.687 298.034,155.627 297.754,155.432 297.874 C 155.238 297.994,155.078 297.907,155.078 297.679 C 155.078 297.410,153.372 297.266,150.195 297.266 C 147.019 297.266,145.313 297.410,145.313 297.679 C 145.313 297.907,145.153 297.994,144.958 297.874 C 144.763 297.754,144.703 298.034,144.825 298.498 C 144.966 299.038,144.896 299.249,144.629 299.084 C 144.363 298.919,144.293 299.130,144.434 299.670 C 144.566 300.176,144.499 300.417,144.267 300.274 C 144.046 300.137,143.880 300.519,143.880 301.168 C 143.880 303.134,143.393 303.350,138.992 303.335 C 135.383 303.322,134.957 303.246,134.831 302.590 C 134.751 302.175,134.859 301.965,135.082 302.103 C 135.320 302.250,135.387 302.014,135.254 301.502 C 135.112 300.962,135.183 300.751,135.449 300.916 C 135.715 301.081,135.785 300.870,135.644 300.330 C 135.503 299.790,135.573 299.580,135.840 299.744 C 136.106 299.909,136.176 299.698,136.035 299.158 C 135.874 298.544,135.949 298.398,136.308 298.621 C 136.676 298.848,136.731 298.702,136.523 298.047 C 136.321 297.408,136.374 297.248,136.719 297.461 C 137.063 297.674,137.117 297.514,136.914 296.875 C 136.719 296.260,136.770 296.079,137.083 296.273 C 137.400 296.469,137.453 296.238,137.263 295.482 C 137.086 294.776,137.135 294.501,137.407 294.669 C 137.668 294.830,137.737 294.615,137.597 294.080 C 137.456 293.540,137.526 293.330,137.793 293.494 C 138.059 293.659,138.129 293.448,137.988 292.908 C 137.827 292.294,137.902 292.148,138.262 292.371 C 138.625 292.596,138.686 292.457,138.492 291.846 C 138.339 291.364,138.398 291.016,138.633 291.016 C 138.856 291.016,138.937 290.752,138.813 290.430 C 138.689 290.107,138.766 289.844,138.984 289.844 C 139.202 289.844,139.281 289.465,139.160 289.001 C 139.019 288.462,139.089 288.251,139.355 288.416 C 139.622 288.581,139.692 288.370,139.550 287.830 C 139.409 287.290,139.479 287.080,139.746 287.244 C 140.012 287.409,140.082 287.198,139.941 286.658 C 139.781 286.044,139.855 285.898,140.215 286.121 C 140.579 286.346,140.639 286.207,140.445 285.596 C 140.300 285.137,140.352 284.766,140.562 284.766 C 140.771 284.766,140.843 284.387,140.722 283.923 C 140.581 283.384,140.651 283.173,140.918 283.338 C 141.184 283.503,141.254 283.292,141.113 282.752 C 140.972 282.212,141.042 282.001,141.308 282.166 C 141.575 282.331,141.645 282.120,141.504 281.580 C 141.362 281.040,141.433 280.830,141.699 280.994 C 141.961 281.156,142.039 280.962,141.910 280.469 C 141.798 280.039,141.897 279.688,142.130 279.688 C 142.363 279.688,142.452 279.424,142.329 279.102 C 142.205 278.779,142.282 278.516,142.500 278.516 C 142.717 278.516,142.796 278.137,142.675 277.673 C 142.534 277.134,142.604 276.923,142.871 277.088 C 143.137 277.253,143.207 277.042,143.066 276.502 C 142.925 275.962,142.995 275.751,143.261 275.916 C 143.523 276.078,143.601 275.884,143.473 275.391 C 143.360 274.961,143.448 274.609,143.668 274.609 C 143.888 274.609,143.968 274.230,143.847 273.767 C 143.706 273.227,143.776 273.017,144.043 273.182 C 144.309 273.346,144.379 273.136,144.238 272.596 C 144.073 271.963,144.147 271.833,144.536 272.073 C 144.907 272.302,144.988 272.219,144.820 271.782 C 144.475 270.883,144.410 270.892,150.232 270.973 C 154.730 271.035,155.665 271.151,155.961 271.680 M219.047 286.738 C 219.121 298.010,219.024 302.599,218.707 302.982 C 218.126 303.681,211.314 303.736,210.625 303.047 C 210.096 302.518,209.921 270.912,210.449 271.217 C 210.610 271.310,211.043 271.277,211.410 271.143 C 211.777 271.008,213.623 270.927,215.512 270.963 L 218.945 271.027 219.047 286.738 M272.935 271.387 C 273.243 271.763,273.384 271.851,273.248 271.582 C 273.112 271.313,273.097 271.094,273.214 271.094 C 273.332 271.094,274.047 272.324,274.805 273.828 C 275.562 275.332,276.058 276.563,275.907 276.563 C 275.756 276.563,275.973 276.812,276.390 277.116 C 276.806 277.421,277.030 277.787,276.887 277.930 C 276.745 278.073,276.978 278.541,277.407 278.969 C 277.835 279.397,278.095 279.983,277.985 280.271 C 277.874 280.559,278.055 280.899,278.386 281.026 C 278.765 281.171,278.893 281.503,278.731 281.925 C 278.590 282.293,278.599 282.468,278.752 282.316 C 278.905 282.163,279.270 282.237,279.563 282.481 C 279.984 282.830,280.045 282.789,279.851 282.285 C 279.700 281.892,279.846 281.555,280.231 281.408 C 280.574 281.276,280.758 281.011,280.639 280.818 C 280.520 280.626,280.619 280.469,280.859 280.469 C 281.100 280.469,281.191 280.298,281.062 280.090 C 280.765 279.610,281.915 277.344,282.455 277.344 C 282.677 277.344,282.750 277.168,282.617 276.953 C 282.484 276.738,282.572 276.563,282.813 276.563 C 283.053 276.563,283.141 276.387,283.008 276.172 C 282.875 275.957,282.963 275.781,283.203 275.781 C 283.443 275.781,283.531 275.605,283.398 275.391 C 283.266 275.176,283.354 275.000,283.594 275.000 C 283.834 275.000,283.922 274.824,283.789 274.609 C 283.656 274.395,283.744 274.219,283.984 274.219 C 284.225 274.219,284.312 274.043,284.180 273.828 C 284.047 273.613,284.135 273.438,284.375 273.438 C 284.615 273.438,284.703 273.262,284.570 273.047 C 284.438 272.832,284.544 272.656,284.808 272.656 C 285.071 272.656,285.169 272.539,285.025 272.395 C 284.881 272.251,285.055 271.812,285.411 271.418 C 286.351 270.380,293.530 270.347,293.926 271.379 C 294.069 271.751,293.998 272.118,293.770 272.194 C 293.541 272.270,293.454 272.493,293.575 272.690 C 293.697 272.886,293.610 273.047,293.382 273.047 C 293.155 273.047,293.013 273.188,293.066 273.360 C 293.256 273.969,291.281 277.703,290.895 277.465 C 290.679 277.331,290.625 277.418,290.775 277.661 C 291.091 278.173,289.617 281.250,289.055 281.250 C 288.844 281.250,288.707 281.382,288.749 281.543 C 288.924 282.204,288.196 283.587,287.802 283.344 C 287.555 283.191,287.492 283.264,287.650 283.520 C 287.966 284.032,286.492 287.109,285.930 287.109 C 285.719 287.109,285.582 287.241,285.624 287.402 C 285.783 288.003,285.087 289.456,284.742 289.243 C 284.545 289.121,284.499 289.323,284.641 289.692 C 284.815 290.144,284.751 290.271,284.446 290.083 C 284.141 289.894,284.077 290.022,284.251 290.473 C 284.393 290.845,284.347 291.044,284.148 290.921 C 283.934 290.788,283.836 293.211,283.906 296.946 C 283.986 301.233,283.894 303.115,283.613 302.941 C 283.387 302.802,283.203 302.849,283.203 303.044 C 283.203 303.596,276.455 303.412,275.859 302.843 C 275.476 302.479,275.379 300.968,275.468 296.724 C 275.538 293.361,275.441 291.178,275.227 291.311 C 275.028 291.435,274.982 291.235,275.124 290.864 C 275.298 290.412,275.234 290.285,274.929 290.473 C 274.624 290.662,274.560 290.535,274.734 290.083 C 274.887 289.685,274.834 289.509,274.605 289.651 C 274.393 289.782,274.219 289.704,274.219 289.476 C 274.219 288.712,274.104 288.479,273.514 288.048 C 273.158 287.787,273.051 287.419,273.243 287.108 C 273.444 286.783,273.405 286.693,273.135 286.859 C 272.798 287.068,271.978 285.646,272.208 285.254 C 272.240 285.200,271.900 284.791,271.454 284.345 C 271.008 283.898,270.742 283.274,270.864 282.957 C 270.985 282.641,270.924 282.481,270.727 282.603 C 270.409 282.799,269.939 281.947,269.927 281.152 C 269.924 280.991,269.557 280.494,269.110 280.048 C 268.664 279.602,268.398 278.977,268.520 278.660 C 268.644 278.337,268.572 278.189,268.355 278.323 C 268.143 278.454,267.969 278.376,267.969 278.148 C 267.969 277.384,267.854 277.150,267.264 276.719 C 266.908 276.459,266.801 276.090,266.993 275.780 C 267.194 275.455,267.155 275.365,266.885 275.531 C 266.520 275.757,265.736 274.300,265.992 273.872 C 266.042 273.788,265.848 273.574,265.561 273.396 C 264.951 273.016,264.863 271.418,265.430 271.002 C 266.303 270.360,272.348 270.670,272.935 271.387 M80.860 287.012 L 80.859 296.094 83.366 296.094 C 84.745 296.094,86.180 296.212,86.556 296.355 C 86.984 296.520,87.143 296.465,86.984 296.208 C 86.839 295.972,87.206 295.703,87.849 295.575 C 88.463 295.452,89.600 294.754,90.374 294.023 C 91.149 293.292,91.883 292.795,92.006 292.917 C 92.128 293.040,92.102 292.809,91.946 292.404 C 91.751 291.896,91.804 291.755,92.117 291.948 C 92.412 292.131,92.489 292.018,92.337 291.622 C 92.209 291.288,92.274 291.016,92.482 291.016 C 92.690 291.016,92.783 290.532,92.689 289.941 C 92.588 289.312,92.651 289.054,92.841 289.318 C 93.022 289.571,93.164 288.341,93.164 286.523 C 93.164 284.738,93.025 283.481,92.854 283.729 C 92.673 283.992,92.592 283.774,92.660 283.203 C 92.786 282.148,92.611 281.839,90.806 279.918 C 90.153 279.224,89.382 278.735,89.091 278.832 C 88.778 278.936,88.672 278.831,88.832 278.572 C 89.020 278.269,88.722 278.213,87.849 278.387 C 87.134 278.530,86.691 278.486,86.816 278.284 C 86.940 278.083,85.694 277.930,83.948 277.930 L 80.861 277.930 80.860 287.012 M150.139 280.323 C 149.893 280.424,149.789 280.877,149.908 281.330 C 150.039 281.832,149.969 282.058,149.727 281.909 C 149.482 281.757,149.406 282.053,149.527 282.687 C 149.653 283.343,149.575 283.619,149.312 283.456 C 149.051 283.295,148.982 283.510,149.121 284.045 C 149.263 284.585,149.192 284.795,148.926 284.631 C 148.664 284.469,148.586 284.663,148.715 285.156 C 148.827 285.586,148.739 285.938,148.520 285.938 C 148.300 285.938,148.219 286.317,148.340 286.780 C 148.481 287.320,148.411 287.530,148.145 287.365 C 147.878 287.201,147.808 287.411,147.950 287.951 C 148.115 288.583,148.040 288.714,147.651 288.474 C 147.265 288.235,147.203 288.335,147.408 288.870 C 147.572 289.298,147.481 289.714,147.181 289.904 C 146.902 290.082,148.235 290.222,150.195 290.222 C 152.382 290.222,153.505 290.092,153.166 289.877 C 152.857 289.682,152.728 289.252,152.868 288.886 C 153.032 288.459,152.964 288.334,152.668 288.517 C 152.364 288.706,152.291 288.524,152.441 287.951 C 152.581 287.416,152.511 287.201,152.250 287.362 C 151.978 287.531,151.930 287.255,152.107 286.549 C 152.303 285.770,152.249 285.560,151.907 285.771 C 151.579 285.974,151.505 285.809,151.660 285.217 C 151.800 284.682,151.730 284.467,151.469 284.628 C 151.197 284.796,151.149 284.521,151.326 283.815 C 151.521 283.036,151.467 282.825,151.126 283.036 C 150.798 283.239,150.724 283.074,150.878 282.483 C 151.000 282.020,150.919 281.641,150.699 281.641 C 150.479 281.641,150.391 281.289,150.504 280.859 C 150.616 280.430,150.681 280.092,150.647 280.109 C 150.613 280.126,150.385 280.222,150.139 280.323 M81.934 296.760 C 82.417 296.853,83.208 296.853,83.691 296.760 C 84.175 296.667,83.779 296.591,82.813 296.591 C 81.846 296.591,81.450 296.667,81.934 296.760 M80.566 303.805 C 79.224 303.881,77.026 303.881,75.684 303.805 C 74.341 303.729,75.439 303.666,78.125 303.666 C 80.811 303.666,81.909 303.729,80.566 303.805 " stroke="none" fill="#6aa562" fill-rule="evenodd"></path><path id="path4" d="M103.613 25.675 C 104.419 25.759,105.737 25.759,106.543 25.675 C 107.349 25.591,106.689 25.522,105.078 25.522 C 103.467 25.522,102.808 25.591,103.613 25.675 M292.081 25.673 C 292.775 25.759,294.005 25.760,294.816 25.676 C 295.626 25.591,295.059 25.521,293.555 25.519 C 292.051 25.517,291.388 25.586,292.081 25.673 M161.426 60.426 C 161.802 60.524,162.417 60.524,162.793 60.426 C 163.169 60.327,162.861 60.247,162.109 60.247 C 161.357 60.247,161.050 60.327,161.426 60.426 M127.332 77.637 L 124.805 80.273 127.441 77.746 C 129.891 75.398,130.257 75.000,129.969 75.000 C 129.909 75.000,128.723 76.187,127.332 77.637 M200.488 85.816 C 200.864 85.914,201.479 85.914,201.855 85.816 C 202.231 85.718,201.924 85.638,201.172 85.638 C 200.420 85.638,200.112 85.718,200.488 85.816 M174.389 96.191 L 173.242 97.461 174.512 96.314 C 175.695 95.244,175.961 94.922,175.659 94.922 C 175.592 94.922,175.021 95.493,174.389 96.191 M371.205 98.242 C 371.208 99.316,371.284 99.709,371.374 99.116 C 371.464 98.522,371.461 97.643,371.369 97.163 C 371.276 96.682,371.203 97.168,371.205 98.242 M28.701 131.836 C 28.701 147.305,28.749 153.576,28.808 145.772 C 28.868 137.968,28.868 125.312,28.808 117.647 C 28.749 109.982,28.701 116.367,28.701 131.836 M279.478 136.133 C 279.478 146.875,279.528 151.213,279.590 145.774 C 279.651 140.334,279.651 131.545,279.589 126.242 C 279.528 120.940,279.478 125.391,279.478 136.133 M120.493 136.133 C 120.493 146.660,120.544 150.911,120.605 145.578 C 120.667 140.246,120.667 131.633,120.605 126.438 C 120.544 121.243,120.493 125.605,120.493 136.133 M371.184 127.344 C 371.184 128.096,371.265 128.403,371.363 128.027 C 371.461 127.651,371.461 127.036,371.363 126.660 C 371.265 126.284,371.184 126.592,371.184 127.344 M371.205 133.398 C 371.208 134.473,371.284 134.866,371.374 134.272 C 371.464 133.678,371.461 132.799,371.369 132.319 C 371.276 131.838,371.203 132.324,371.205 133.398 M197.046 135.254 L 195.898 136.523 197.168 135.376 C 198.351 134.307,198.617 133.984,198.315 133.984 C 198.248 133.984,197.677 134.556,197.046 135.254 M28.698 182.031 C 28.698 194.170,28.748 199.136,28.808 193.066 C 28.869 186.997,28.869 177.065,28.808 170.996 C 28.748 164.927,28.698 169.893,28.698 182.031 M371.200 170.313 C 371.200 171.279,371.276 171.675,371.369 171.191 C 371.463 170.708,371.463 169.917,371.369 169.434 C 371.276 168.950,371.200 169.346,371.200 170.313 M209.904 179.492 C 209.903 181.426,209.969 182.266,210.051 181.359 C 210.133 180.453,210.134 178.871,210.053 177.844 C 209.972 176.817,209.905 177.559,209.904 179.492 M126.172 192.383 C 126.901 193.135,127.585 193.750,127.692 193.750 C 127.800 193.750,127.291 193.135,126.563 192.383 C 125.834 191.631,125.149 191.016,125.042 191.016 C 124.935 191.016,125.443 191.631,126.172 192.383 M273.416 192.480 L 272.070 193.945 273.535 192.599 C 274.899 191.346,275.180 191.016,274.881 191.016 C 274.816 191.016,274.157 191.675,273.416 192.480 M28.701 233.398 C 28.701 249.512,28.749 256.160,28.808 248.173 C 28.867 240.186,28.867 227.003,28.808 218.877 C 28.750 210.750,28.701 217.285,28.701 233.398 M371.200 210.938 C 371.200 211.904,371.276 212.300,371.369 211.816 C 371.463 211.333,371.463 210.542,371.369 210.059 C 371.276 209.575,371.200 209.971,371.200 210.938 M371.200 214.453 C 371.200 215.420,371.276 215.815,371.369 215.332 C 371.463 214.849,371.463 214.058,371.369 213.574 C 371.276 213.091,371.200 213.486,371.200 214.453 M371.184 217.969 C 371.184 218.721,371.265 219.028,371.363 218.652 C 371.461 218.276,371.461 217.661,371.363 217.285 C 371.265 216.909,371.184 217.217,371.184 217.969 M371.222 228.320 C 371.224 229.824,371.294 230.392,371.379 229.581 C 371.463 228.771,371.462 227.540,371.376 226.847 C 371.289 226.153,371.220 226.816,371.222 228.320 M191.190 234.484 C 188.125 237.653,188.120 237.661,190.791 235.155 C 192.279 233.759,193.751 232.389,194.061 232.110 C 194.371 231.832,194.550 231.529,194.459 231.438 C 194.369 231.348,192.897 232.718,191.190 234.484 M371.200 232.813 C 371.200 233.779,371.276 234.175,371.369 233.691 C 371.463 233.208,371.463 232.417,371.369 231.934 C 371.276 231.450,371.200 231.846,371.200 232.813 M371.232 238.086 C 371.231 240.020,371.297 240.860,371.379 239.953 C 371.461 239.047,371.462 237.465,371.381 236.438 C 371.301 235.411,371.234 236.152,371.232 238.086 M180.769 239.736 C 181.471 239.823,182.525 239.821,183.112 239.732 C 183.699 239.643,183.125 239.572,181.836 239.574 C 180.547 239.576,180.067 239.649,180.769 239.736 M371.184 248.828 C 371.184 249.580,371.265 249.888,371.363 249.512 C 371.461 249.136,371.461 248.521,371.363 248.145 C 371.265 247.769,371.184 248.076,371.184 248.828 M113.672 253.247 C 113.672 253.314,114.243 253.886,114.941 254.517 L 116.211 255.664 115.064 254.395 C 113.994 253.211,113.672 252.945,113.672 253.247 M371.184 258.203 C 371.184 258.955,371.265 259.263,371.363 258.887 C 371.461 258.511,371.461 257.896,371.363 257.520 C 371.265 257.144,371.184 257.451,371.184 258.203 M309.856 259.375 C 309.856 260.127,309.937 260.435,310.035 260.059 C 310.133 259.683,310.133 259.067,310.035 258.691 C 309.937 258.315,309.856 258.623,309.856 259.375 M312.685 286.523 C 312.685 302.207,312.734 308.566,312.793 300.655 C 312.852 292.743,312.852 279.911,312.793 272.139 C 312.734 264.367,312.685 270.840,312.685 286.523 M119.716 286.523 C 119.716 301.777,119.765 308.074,119.824 300.517 C 119.883 292.960,119.883 280.479,119.824 272.783 C 119.765 265.086,119.716 271.270,119.716 286.523 M345.107 286.914 C 345.107 302.168,345.155 308.465,345.215 300.908 C 345.274 293.350,345.274 280.870,345.215 273.173 C 345.155 265.477,345.107 271.660,345.107 286.914 M245.469 265.820 C 245.469 269.043,245.530 270.309,245.603 268.634 C 245.677 266.960,245.676 264.323,245.602 262.775 C 245.528 261.227,245.468 262.598,245.469 265.820 M309.948 283.203 C 309.948 294.697,309.997 299.399,310.058 293.652 C 310.119 287.905,310.119 278.501,310.058 272.754 C 309.997 267.007,309.948 271.709,309.948 283.203 M28.695 280.078 C 28.695 289.639,28.746 293.550,28.808 288.770 C 28.870 283.989,28.870 276.167,28.808 271.387 C 28.746 266.606,28.695 270.518,28.695 280.078 M266.504 271.374 C 267.095 271.463,268.062 271.463,268.652 271.374 C 269.243 271.284,268.760 271.211,267.578 271.211 C 266.396 271.211,265.913 271.284,266.504 271.374 M210.713 279.883 C 210.714 284.609,210.770 286.489,210.839 284.060 C 210.907 281.631,210.907 277.764,210.838 275.467 C 210.769 273.169,210.713 275.156,210.713 279.883 M245.491 287.695 C 245.491 296.504,245.542 300.163,245.605 295.827 C 245.668 291.491,245.668 284.284,245.605 279.811 C 245.542 275.339,245.491 278.887,245.491 287.695 M210.664 292.188 C 210.664 293.369,210.737 293.853,210.827 293.262 C 210.916 292.671,210.916 291.704,210.827 291.113 C 210.737 290.522,210.664 291.006,210.664 292.188 M147.759 290.905 C 148.353 290.995,149.232 290.993,149.712 290.900 C 150.193 290.807,149.707 290.734,148.633 290.737 C 147.559 290.740,147.166 290.816,147.759 290.905 M371.236 295.117 C 371.237 297.266,371.303 298.095,371.382 296.960 C 371.461 295.824,371.461 294.067,371.380 293.053 C 371.300 292.040,371.235 292.969,371.236 295.117 M245.460 308.203 C 245.460 310.674,245.524 311.685,245.601 310.449 C 245.679 309.214,245.679 307.192,245.601 305.957 C 245.524 304.722,245.460 305.732,245.460 308.203 M309.912 308.398 C 309.913 310.762,309.977 311.678,310.055 310.435 C 310.132 309.192,310.132 307.258,310.053 306.138 C 309.974 305.018,309.911 306.035,309.912 308.398 M74.345 321.777 C 80.966 321.837,91.689 321.837,98.173 321.777 C 104.656 321.717,99.238 321.668,86.133 321.668 C 73.027 321.668,67.723 321.717,74.345 321.777 M129.395 321.754 C 129.771 321.852,130.386 321.852,130.762 321.754 C 131.138 321.655,130.830 321.575,130.078 321.575 C 129.326 321.575,129.019 321.655,129.395 321.754 M136.041 321.765 C 136.634 321.854,137.513 321.852,137.994 321.759 C 138.474 321.667,137.988 321.593,136.914 321.596 C 135.840 321.599,135.447 321.675,136.041 321.765 M147.559 321.760 C 148.042 321.853,148.833 321.853,149.316 321.760 C 149.800 321.667,149.404 321.591,148.438 321.591 C 147.471 321.591,147.075 321.667,147.559 321.760 M152.051 321.771 C 153.071 321.852,154.741 321.852,155.762 321.771 C 156.782 321.691,155.947 321.625,153.906 321.625 C 151.865 321.625,151.030 321.691,152.051 321.771 M167.878 321.767 C 168.580 321.854,169.635 321.853,170.222 321.763 C 170.809 321.674,170.234 321.603,168.945 321.605 C 167.656 321.608,167.176 321.681,167.878 321.767 M195.037 321.775 C 196.712 321.848,199.349 321.848,200.897 321.774 C 202.445 321.700,201.074 321.640,197.852 321.641 C 194.629 321.641,193.363 321.702,195.037 321.775 M205.769 321.767 C 206.471 321.854,207.525 321.853,208.112 321.763 C 208.699 321.674,208.125 321.603,206.836 321.605 C 205.547 321.608,205.067 321.681,205.769 321.767 M210.645 321.769 C 211.450 321.853,212.769 321.853,213.574 321.769 C 214.380 321.685,213.721 321.616,212.109 321.616 C 210.498 321.616,209.839 321.685,210.645 321.769 M219.607 321.776 C 221.905 321.845,225.772 321.845,228.201 321.776 C 230.630 321.708,228.750 321.651,224.023 321.651 C 219.297 321.651,217.310 321.707,219.607 321.776 M234.277 321.760 C 234.761 321.853,235.552 321.853,236.035 321.760 C 236.519 321.667,236.123 321.591,235.156 321.591 C 234.189 321.591,233.794 321.667,234.277 321.760 M257.924 321.773 C 259.168 321.851,261.101 321.851,262.221 321.772 C 263.341 321.693,262.324 321.630,259.961 321.630 C 257.598 321.631,256.681 321.696,257.924 321.773 M264.941 321.754 C 265.317 321.852,265.933 321.852,266.309 321.754 C 266.685 321.655,266.377 321.575,265.625 321.575 C 264.873 321.575,264.565 321.655,264.941 321.754 M269.634 321.765 C 270.228 321.854,271.107 321.852,271.587 321.759 C 272.068 321.667,271.582 321.593,270.508 321.596 C 269.434 321.599,269.041 321.675,269.634 321.765 M273.730 321.760 C 274.214 321.853,275.005 321.853,275.488 321.760 C 275.972 321.667,275.576 321.591,274.609 321.591 C 273.643 321.591,273.247 321.667,273.730 321.760 M281.738 321.776 C 284.692 321.843,289.526 321.843,292.480 321.776 C 295.435 321.710,293.018 321.656,287.109 321.656 C 281.201 321.656,278.784 321.710,281.738 321.776 M299.121 321.767 C 299.819 321.854,300.962 321.854,301.660 321.767 C 302.358 321.680,301.787 321.609,300.391 321.609 C 298.994 321.609,298.423 321.680,299.121 321.767 M323.948 321.776 C 326.484 321.844,330.527 321.844,332.932 321.776 C 335.337 321.707,333.262 321.652,328.320 321.652 C 323.379 321.652,321.411 321.708,323.948 321.776 M104.206 374.502 C 104.908 374.589,105.963 374.587,106.550 374.498 C 107.137 374.409,106.563 374.338,105.273 374.340 C 103.984 374.342,103.504 374.415,104.206 374.502 M295.987 374.501 C 296.681 374.587,297.911 374.588,298.722 374.504 C 299.532 374.419,298.965 374.349,297.461 374.347 C 295.957 374.345,295.294 374.414,295.987 374.501 " stroke="none" fill="#caa564" fill-rule="evenodd"></path></g></svg>